<svg xmlns="http://www.w3.org/2000/svg" width="13.091" height="18" viewBox="64.206 61.75 13.091 18" enable-background="new 64.206 61.75 13.091 18"><path fill="#FB7A03" d="M68.227 61.75c2.64 6.494-4.021 6.088-4.021 12.583 0 2.437 1.94 5.417 7.076 5.417 4.856 0 7.635-5.546 4.997-10.693-.42.678-.834 2.031-1.668 3.114.418-5.683-3.192-8.931-6.384-10.421z"/><path fill="#FBD708" d="M71.419 68.65c.328 3.4-2.916 3.109-3.832 6.15-.343 1.143.149 2.801 2.562 3.487 2.281.649 5.119-1.464 4.603-4.226l-1.972 1.112c.993-2.605-.072-5.394-1.361-6.523z"/></svg>